<svg width="43" height="43" viewBox="0 0 43 43" fill="none" xmlns="http://www.w3.org/2000/svg">
<path d="M18.2535 42.3959C15.0653 42.407 11.9065 41.7856 8.96011 40.5676C6.0137 39.3497 3.33817 37.5593 1.08842 35.3002C0.949815 35.1616 0.871948 34.9736 0.871948 34.7776C0.871948 34.5816 0.949815 34.3936 1.08842 34.255C1.22702 34.1164 1.41501 34.0386 1.61103 34.0386C1.80704 34.0386 1.99503 34.1164 2.13363 34.255C6.41162 38.5251 12.2091 40.9233 18.2535 40.9233C24.2979 40.9233 30.0953 38.5251 34.3733 34.255C38.6434 29.977 41.0416 24.1796 41.0416 18.1352C41.0416 12.0908 38.6434 6.29334 34.3733 2.01535C34.2347 1.87674 34.1568 1.68876 34.1568 1.49274C34.1568 1.29672 34.2347 1.10874 34.3733 0.970133C34.5119 0.831529 34.6999 0.753662 34.8959 0.753662C35.0919 0.753662 35.2799 0.831529 35.4185 0.970133C39.9673 5.52455 42.5223 11.6983 42.5223 18.1352C42.5223 24.5721 39.9673 30.7458 35.4185 35.3002C33.1688 37.5593 30.4932 39.3497 27.5468 40.5676C24.6004 41.7856 21.4417 42.407 18.2535 42.3959Z" fill="#324950"/>
</svg>
